0
SECTION
2
HEADER
9
$ACADVER
1
AC1006
0
ENDSEC
0
SECTION
2
TABLES
0
TABLE
2
LAYER
70
1
0
LAYER
70
0
62
1
6
CONTINUOUS
2
L0D0
0
ENDTAB
0
ENDSEC
0
SECTION
2
BLOCKS
0
ENDSEC
0
SECTION
2
ENTITIES
0
POLYLINE
8
L0D0
70
1
40
0
41
0
66
1
0
VERTEX
8
L0D0
10
0
20
-2.5
0
VERTEX
8
L0D0
10
0
20
2.5
0
VERTEX
8
L0D0
10
0.6129
20
2.5096
0
VERTEX
8
L0D0
10
1.2024
20
2.5379
0
VERTEX
8
L0D0
10
1.7695
20
2.5838
0
VERTEX
8
L0D0
10
2.3151
20
2.6467
0
VERTEX
8
L0D0
10
2.8404
20
2.7257
0
VERTEX
8
L0D0
10
3.3466
20
2.82
0
VERTEX
8
L0D0
10
3.8349
20
2.929
0
VERTEX
8
L0D0
10
4.3064
20
3.0519
0
VERTEX
8
L0D0
10
4.7624
20
3.1884
0
VERTEX
8
L0D0
10
5.2042
20
3.3378
0
VERTEX
8
L0D0
10
5.633
20
3.4999
0
VERTEX
8
L0D0
10
6.0498
20
3.6741
0
VERTEX
8
L0D0
10
6.8523
20
4.058
0
VERTEX
8
L0D0
10
7.62
20
4.4875
0
VERTEX
8
L0D0
10
8.3602
20
4.9607
0
VERTEX
8
L0D0
10
9.0791
20
5.4757
0
VERTEX
8
L0D0
10
9.7824
20
6.03
0
VERTEX
8
L0D0
10
10.4749
20
6.6207
0
VERTEX
8
L0D0
10
11.1613
20
7.2441
0
VERTEX
8
L0D0
10
11.8465
20
7.8962
0
VERTEX
8
L0D0
10
13.2322
20
9.2678
0
VERTEX
8
L0D0
10
14.6736
20
10.6941
0
VERTEX
8
L0D0
10
15.4295
20
11.4134
0
VERTEX
8
L0D0
10
16.217
20
12.1285
0
VERTEX
8
L0D0
10
17.0425
20
12.8324
0
VERTEX
8
L0D0
10
17.9121
20
13.5177
0
VERTEX
8
L0D0
10
18.832
20
14.1764
0
VERTEX
8
L0D0
10
19.8075
20
14.8
0
VERTEX
8
L0D0
10
20.8434
20
15.3794
0
VERTEX
8
L0D0
10
21.9434
20
15.9055
0
VERTEX
8
L0D0
10
22.5183
20
16.1458
0
VERTEX
8
L0D0
10
23.1101
20
16.3695
0
VERTEX
8
L0D0
10
23.7191
20
16.5755
0
VERTEX
8
L0D0
10
24.3455
20
16.7629
0
VERTEX
8
L0D0
10
24.9893
20
16.9308
0
VERTEX
8
L0D0
10
25.6507
20
17.0784
0
VERTEX
8
L0D0
10
26.3299
20
17.205
0
VERTEX
8
L0D0
10
27.027
20
17.3098
0
VERTEX
8
L0D0
10
27.7423
20
17.3923
0
VERTEX
8
L0D0
10
28.476
20
17.4518
0
VERTEX
8
L0D0
10
29.2284
20
17.4879
0
VERTEX
8
L0D0
10
30
20
17.5
0
VERTEX
8
L0D0
10
30
20
12.5
0
VERTEX
8
L0D0
10
29.3871
20
12.4904
0
VERTEX
8
L0D0
10
28.7976
20
12.4621
0
VERTEX
8
L0D0
10
28.2305
20
12.4162
0
VERTEX
8
L0D0
10
27.6849
20
12.3533
0
VERTEX
8
L0D0
10
27.1596
20
12.2743
0
VERTEX
8
L0D0
10
26.6534
20
12.18
0
VERTEX
8
L0D0
10
26.1651
20
12.071
0
VERTEX
8
L0D0
10
25.6936
20
11.9481
0
VERTEX
8
L0D0
10
25.2376
20
11.8116
0
VERTEX
8
L0D0
10
24.7958
20
11.6622
0
VERTEX
8
L0D0
10
24.367
20
11.5001
0
VERTEX
8
L0D0
10
23.9502
20
11.3259
0
VERTEX
8
L0D0
10
23.1477
20
10.942
0
VERTEX
8
L0D0
10
22.38
20
10.5125
0
VERTEX
8
L0D0
10
21.6398
20
10.0393
0
VERTEX
8
L0D0
10
20.9209
20
9.5243
0
VERTEX
8
L0D0
10
20.2176
20
8.97
0
VERTEX
8
L0D0
10
19.5251
20
8.3793
0
VERTEX
8
L0D0
10
18.8387
20
7.7559
0
VERTEX
8
L0D0
10
18.1535
20
7.1038
0
VERTEX
8
L0D0
10
16.7678
20
5.7322
0
VERTEX
8
L0D0
10
15.3264
20
4.3059
0
VERTEX
8
L0D0
10
14.5705
20
3.5866
0
VERTEX
8
L0D0
10
13.783
20
2.8715
0
VERTEX
8
L0D0
10
12.9575
20
2.1676
0
VERTEX
8
L0D0
10
12.0879
20
1.4823
0
VERTEX
8
L0D0
10
11.168
20
0.8236
0
VERTEX
8
L0D0
10
10.1925
20
0.2
0
VERTEX
8
L0D0
10
9.1566
20
-0.3794
0
VERTEX
8
L0D0
10
8.0566
20
-0.9055
0
VERTEX
8
L0D0
10
7.4817
20
-1.1458
0
VERTEX
8
L0D0
10
6.8899
20
-1.3695
0
VERTEX
8
L0D0
10
6.2809
20
-1.5755
0
VERTEX
8
L0D0
10
5.6545
20
-1.7629
0
VERTEX
8
L0D0
10
5.0107
20
-1.9308
0
VERTEX
8
L0D0
10
4.3493
20
-2.0784
0
VERTEX
8
L0D0
10
3.6701
20
-2.205
0
VERTEX
8
L0D0
10
2.973
20
-2.3098
0
VERTEX
8
L0D0
10
2.2577
20
-2.3923
0
VERTEX
8
L0D0
10
1.524
20
-2.4518
0
VERTEX
8
L0D0
10
0.7716
20
-2.4879
0
SEQEND
0
ENDSEC
0
EOF
